<svg width="70" height="75" viewBox="0 0 70 75" fill="none" xmlns="http://www.w3.org/2000/svg">
<path d="M52.1819 56.5707L48.4169 53.1976C47.7 52.5523 47.6373 51.4477 48.272 50.7232L52.5854 45.8061C53.2201 45.0816 53.1574 43.977 52.4366 43.3317C51.7196 42.6903 50.6265 42.7576 49.9919 43.4821L42.2817 52.2672C41.4864 53.1699 40.1191 53.253 39.2219 52.4533C38.3287 51.6496 38.2464 50.2639 39.0378 49.3613L51.9233 34.6772C52.5619 33.9527 52.4953 32.8481 51.7784 32.2068C51.0614 31.5615 49.9684 31.6288 49.3298 32.3533L21.729 63.7999C20.9377 64.7065 19.5664 64.7896 18.6732 63.986C17.776 63.1823 17.6937 61.8006 18.4891 60.8979L40.9144 35.3463C41.5491 34.6218 41.4825 33.5133 40.7655 32.8719C40.0486 32.2305 38.9555 32.2939 38.3169 33.0184L29.5724 42.9833C28.9377 43.7078 27.8408 43.7751 27.1238 43.1337L26.4774 42.5517C25.7565 41.9064 25.6938 40.8018 26.3285 40.0773L40.2484 24.2135C40.887 23.489 40.8204 22.3844 40.1034 21.7391C39.3865 21.0977 38.2895 21.165 37.6548 21.8895L4.85912 59.2668C4.06381 60.1695 2.69651 60.2526 1.79934 59.4529C0.906087 58.6492 0.823814 57.2675 1.6152 56.3609L29.2394 24.8865C29.878 24.162 29.8114 23.0574 29.0945 22.4121C28.3775 21.7708 27.2805 21.8381 26.6459 22.5626L22.3363 27.4757C21.6977 28.2002 20.6046 28.2675 19.8877 27.6262L16.1227 24.2491C15.1589 23.386 15.4332 21.7985 16.6281 21.3155L66.6424 1.02936C67.9666 0.490929 69.3339 1.71427 68.9617 3.11181L55.0105 55.7116C54.6736 56.9706 53.1457 57.4338 52.1819 56.5707ZM23.6017 46.4949C22.7046 45.6913 21.3373 45.7744 20.542 46.6771L0.847321 69.1208C0.0520126 70.0235 0.134285 71.4092 1.03146 72.2089C1.92471 73.0126 3.29593 72.9294 4.08732 72.0228L23.7859 49.583C24.5773 48.6803 24.495 47.2947 23.6017 46.4949ZM36.4207 55.6403C35.5274 54.8406 34.1562 54.9237 33.3648 55.8264L20.5616 70.4154C19.7662 71.3181 19.8485 72.7038 20.7457 73.5035C21.6389 74.3072 23.0102 74.224 23.8016 73.3214L36.6048 58.7323C37.4001 57.8257 37.3179 56.444 36.4207 55.6403ZM17.4195 65.3281C16.5458 64.5481 15.2138 64.6273 14.4381 65.5102C13.6663 66.3931 13.7446 67.7431 14.6183 68.523C15.488 69.3069 16.824 69.2238 17.5997 68.3449C18.3715 67.462 18.2932 66.112 17.4195 65.3281Z" fill="#FF3131"/>
</svg>
