<svg width="170" height="75" viewBox="0 0 170 75" fill="none" xmlns="http://www.w3.org/2000/svg">
<g clip-path="url(#clip0_161_556)">
<mask id="mask0_161_556" style="mask-type:luminance" maskUnits="userSpaceOnUse" x="0" y="0" width="70" height="75">
<path d="M0.25 0H69.4535V75H0.25V0Z" fill="white"/>
</mask>
<g mask="url(#mask0_161_556)">
<mask id="mask1_161_556" style="mask-type:luminance" maskUnits="userSpaceOnUse" x="-4" y="0" width="78" height="76">
<path d="M-3.81641 4.82211L69.0189 0.411743L73.2031 70.9776L0.367775 75.388L-3.81641 4.82211Z" fill="white"/>
</mask>
<g mask="url(#mask1_161_556)">
<mask id="mask2_161_556" style="mask-type:luminance" maskUnits="userSpaceOnUse" x="-4" y="0" width="78" height="76">
<path d="M-3.81641 4.82211L69.0189 0.411743L73.2031 70.9776L0.367775 75.388L-3.81641 4.82211Z" fill="white"/>
</mask>
<g mask="url(#mask2_161_556)">
<path d="M52.1819 56.5707L48.4169 53.1976C47.7 52.5523 47.6373 51.4477 48.272 50.7232L52.5854 45.8061C53.2201 45.0816 53.1574 43.977 52.4366 43.3317C51.7196 42.6903 50.6265 42.7576 49.9919 43.4821L42.2817 52.2672C41.4864 53.1699 40.1191 53.253 39.2219 52.4533C38.3287 51.6496 38.2464 50.2639 39.0378 49.3613L51.9233 34.6772C52.5619 33.9527 52.4953 32.8481 51.7784 32.2068C51.0614 31.5615 49.9684 31.6288 49.3298 32.3533L21.729 63.7999C20.9377 64.7065 19.5664 64.7896 18.6732 63.986C17.776 63.1823 17.6937 61.8006 18.4891 60.8979L40.9144 35.3463C41.5491 34.6218 41.4825 33.5133 40.7655 32.8719C40.0486 32.2305 38.9555 32.2939 38.3169 33.0184L29.5724 42.9833C28.9377 43.7078 27.8408 43.7751 27.1238 43.1337L26.4774 42.5517C25.7565 41.9064 25.6938 40.8018 26.3285 40.0773L40.2484 24.2135C40.887 23.489 40.8204 22.3844 40.1034 21.7391C39.3865 21.0977 38.2895 21.165 37.6548 21.8895L4.85912 59.2668C4.06381 60.1695 2.69651 60.2526 1.79934 59.4529C0.906087 58.6492 0.823814 57.2675 1.6152 56.3609L29.2394 24.8865C29.878 24.162 29.8114 23.0574 29.0945 22.4121C28.3775 21.7708 27.2805 21.8381 26.6459 22.5626L22.3363 27.4757C21.6977 28.2002 20.6046 28.2675 19.8877 27.6262L16.1227 24.2491C15.1589 23.386 15.4332 21.7985 16.6281 21.3155L66.6424 1.02936C67.9666 0.490929 69.3339 1.71427 68.9617 3.11181L55.0105 55.7116C54.6736 56.9706 53.1457 57.4338 52.1819 56.5707ZM23.6017 46.4949C22.7046 45.6913 21.3373 45.7744 20.542 46.6771L0.847321 69.1208C0.0520126 70.0235 0.134285 71.4092 1.03146 72.2089C1.92471 73.0126 3.29593 72.9294 4.08732 72.0228L23.7859 49.583C24.5773 48.6803 24.495 47.2947 23.6017 46.4949ZM36.4207 55.6403C35.5274 54.8406 34.1562 54.9237 33.3648 55.8264L20.5616 70.4154C19.7662 71.3181 19.8485 72.7038 20.7457 73.5035C21.6389 74.3072 23.0102 74.224 23.8016 73.3214L36.6048 58.7323C37.4001 57.8257 37.3179 56.444 36.4207 55.6403ZM17.4195 65.3281C16.5458 64.5481 15.2138 64.6273 14.4381 65.5102C13.6663 66.3931 13.7446 67.7431 14.6183 68.523C15.488 69.3069 16.824 69.2238 17.5997 68.3449C18.3715 67.462 18.2932 66.112 17.4195 65.3281Z" fill="#FF3131"/>
</g>
</g>
</g>
<path d="M75.6046 24.035C77.7868 24.035 79.3656 24.5497 80.3372 25.5711C81.3167 26.5965 81.8103 28.1485 81.8103 30.227V31.193C81.8103 32.5786 81.5948 33.7228 81.1678 34.6294C80.7368 35.5281 80.0551 36.1932 79.1149 36.6248C80.251 37.0603 81.0581 37.7729 81.5282 38.7627C81.9984 39.7445 82.2334 40.9599 82.2334 42.405V44.5904C82.2334 46.6728 81.7006 48.2604 80.635 49.357C79.5693 50.4458 77.9787 50.9882 75.871 50.9882H69.2734V24.035H75.6046ZM73.4733 38.8577V47.14H75.871C76.5801 47.14 77.1168 46.9499 77.4851 46.5699C77.8612 46.1819 78.0492 45.4851 78.0492 44.4795V42.1358C78.0492 40.8689 77.8338 40.0098 77.4067 39.5545C76.9875 39.0913 76.298 38.8577 75.3382 38.8577H73.4733ZM73.4733 27.8832V35.0095H75.1031C75.8945 35.0095 76.5135 34.8036 76.9523 34.3919C77.3989 33.9801 77.6261 33.2358 77.6261 32.159V30.6545C77.6261 29.6727 77.4537 28.968 77.109 28.5325C76.7642 28.101 76.2236 27.8832 75.4949 27.8832H73.4733Z" fill="black"/>
<path d="M88.5983 44.7804C88.5983 45.7622 88.7903 46.4551 89.1781 46.8549C89.5738 47.2469 90.1066 47.4409 90.7766 47.4409C91.4348 47.4409 91.9558 47.2469 92.3437 46.8549C92.7394 46.4551 92.9392 45.7622 92.9392 44.7804V30.227C92.9392 29.257 92.7394 28.5721 92.3437 28.1683C91.9558 27.7684 91.4348 27.5665 90.7766 27.5665C90.1066 27.5665 89.5738 27.7684 89.1781 28.1683C88.7903 28.5721 88.5983 29.257 88.5983 30.227V44.7804ZM84.3984 30.4962C84.3984 28.3108 84.9469 26.6401 86.0439 25.4761C87.1409 24.3043 88.7158 23.7183 90.7766 23.7183C92.8334 23.7183 94.4044 24.3043 95.4936 25.4761C96.5905 26.6401 97.139 28.3108 97.139 30.4962V44.5112C97.139 46.6966 96.5905 48.3752 95.4936 49.5471C94.4044 50.711 92.8334 51.2891 90.7766 51.2891C88.7158 51.2891 87.1409 50.711 86.0439 49.5471C84.9469 48.3752 84.3984 46.6966 84.3984 44.5112V30.4962Z" fill="black"/>
<path d="M103.688 44.7804C103.688 45.7622 103.88 46.4551 104.268 46.8549C104.664 47.2469 105.196 47.4409 105.866 47.4409C106.525 47.4409 107.046 47.2469 107.434 46.8549C107.829 46.4551 108.029 45.7622 108.029 44.7804V30.227C108.029 29.257 107.829 28.5721 107.434 28.1683C107.046 27.7684 106.525 27.5665 105.866 27.5665C105.196 27.5665 104.664 27.7684 104.268 28.1683C103.88 28.5721 103.688 29.257 103.688 30.227V44.7804ZM99.4883 30.4962C99.4883 28.3108 100.037 26.6401 101.134 25.4761C102.231 24.3043 103.806 23.7183 105.866 23.7183C107.923 23.7183 109.494 24.3043 110.583 25.4761C111.68 26.6401 112.229 28.3108 112.229 30.4962V44.5112C112.229 46.6966 111.68 48.3752 110.583 49.5471C109.494 50.711 107.923 51.2891 105.866 51.2891C103.806 51.2891 102.231 50.711 101.134 49.5471C100.037 48.3752 99.4883 46.6966 99.4883 44.5112V30.4962Z" fill="black"/>
<path d="M114.391 30.4962C114.391 28.3108 114.9 26.6401 115.927 25.4761C116.961 24.3043 118.505 23.7183 120.565 23.7183C122.622 23.7183 124.162 24.3043 125.188 25.4761C126.223 26.6401 126.74 28.3108 126.74 30.4962V31.5414H122.775V30.227C122.775 29.257 122.591 28.5721 122.226 28.1683C121.858 27.7684 121.349 27.5665 120.691 27.5665C120.021 27.5665 119.504 27.7684 119.139 28.1683C118.771 28.5721 118.591 29.257 118.591 30.227C118.591 31.1574 118.795 31.9769 119.202 32.6816C119.609 33.3784 120.115 34.0435 120.722 34.6769C121.325 35.3104 121.98 35.9438 122.681 36.5773C123.378 37.2028 124.033 37.8877 124.64 38.636C125.255 39.3763 125.768 40.2196 126.176 41.1698C126.583 42.1199 126.787 43.2364 126.787 44.5112C126.787 46.6966 126.258 48.3752 125.204 49.5471C124.146 50.711 122.591 51.2891 120.534 51.2891C118.473 51.2891 116.918 50.711 115.864 49.5471C114.806 48.3752 114.281 46.6966 114.281 44.5112V42.6742H118.246V44.7804C118.246 45.7622 118.438 46.4511 118.826 46.8391C119.222 47.2192 119.75 47.4092 120.409 47.4092C121.075 47.4092 121.604 47.2192 121.991 46.8391C122.387 46.4511 122.587 45.7622 122.587 44.7804C122.587 43.8619 122.383 43.0503 121.976 42.3416C121.568 41.6369 121.059 40.9718 120.456 40.3463C119.848 39.7128 119.194 39.0873 118.497 38.4618C117.795 37.8283 117.137 37.1434 116.522 36.4031C115.915 35.6548 115.41 34.8036 115.002 33.8535C114.595 32.9033 114.391 31.7868 114.391 30.4962Z" fill="black"/>
<path d="M128.031 27.8832H140.991H136.619V50.9882H132.419V27.8832H128.031Z" fill="black"/>
<path d="M149.348 24.035H153.548V50.9882H149.348V24.035Z" fill="#FF3131"/>
<path d="M156.586 24.035H163.215C165.323 24.035 166.89 24.6012 167.916 25.7295C168.95 26.8618 169.468 28.5127 169.468 30.6862V44.3211C169.468 46.5065 168.95 48.1654 167.916 49.2937C166.89 50.426 165.323 50.9882 163.215 50.9882H156.586V24.035ZM160.786 27.8832V47.14H163.152C163.81 47.14 164.327 46.9499 164.704 46.5699C165.088 46.1819 165.283 45.493 165.283 44.5112V30.4962C165.283 29.5262 165.088 28.8492 164.704 28.4692C164.327 28.0812 163.81 27.8832 163.152 27.8832H160.786Z" fill="#FF3131"/>
<path d="M147.41 50.9882H143.179L142.458 46.0948H137.318L136.582 50.9882H132.742L137.005 24.035H143.148L147.41 50.9882ZM137.851 42.4366H141.878L139.873 28.8017L137.851 42.4366Z" fill="#FF3131"/>
<path d="M128.031 24.035H140.991V27.8832H136.619H132.419H128.031V24.035Z" fill="black"/>
</g>
<defs>
<clipPath id="clip0_161_556">
<rect width="170" height="75" fill="white"/>
</clipPath>
</defs>
</svg>
